<?xml version="1.0" encoding="UTF-8"?>
<svg width="183px" height="182px" viewBox="0 0 183 182" version="1.1" xmlns="http://www.w3.org/2000/svg" xmlns:xlink="http://www.w3.org/1999/xlink">
    <!-- Generator: Sketch 42 (36781) - http://www.bohemiancoding.com/sketch -->
    <title>noun_172</title>
    <desc>Created with Sketch.</desc>
    <defs></defs>
    <g id="Welcome" stroke="none" stroke-width="1" fill="none" fill-rule="evenodd">
        <g id="WindFlow" transform="translate(-78.000000, -285.000000)" fill-rule="nonzero" fill="#FFFFFF">
            <g id="noun_172-+-Accelerometer-Data-M-+-graph-+-LED-Title-+-Socket-Room-+-Rectangle-2-Copy-+-cta-+-Group-8-Mask" transform="translate(22.000000, 119.000000)">
                <g id="noun_172">
                    <g transform="translate(56.000000, 166.000000)">
                        <path d="M114.542425,85.1941991 C121.88981,82.5606194 134.149425,80.8880141 145.922375,87.4182727 C165.934019,98.5149801 184.74449,81.6305853 182.006765,62.9352633 C179.578901,46.3675533 169.331569,29.4995388 156.317347,22.7217565 C136.854342,12.5933037 122.119473,18.2299287 110.714713,30.5897352 C103.247028,38.6888574 95.4366728,52.9724329 94.8315297,66.5571179 C94.5453626,72.9526944 87.1086645,72.6159893 85.3205761,67.6327541 C82.6812774,60.2962234 81.0061976,48.0528987 87.5424719,36.3009814 C98.6610646,16.3152598 81.7498674,-2.4692436 63.0287091,0.266257679 C46.4346651,2.69417431 29.5435178,12.9209086 22.7557081,25.9213648 C12.610448,45.353798 18.2554122,60.0669 30.6335045,71.4511717 C38.7427863,78.9096443 53.0547846,86.712102 66.6540994,87.3163511 C73.0609606,87.6002754 72.7237574,95.0259875 67.7331497,96.8096144 C60.3821195,99.4468342 48.1206813,101.121259 36.3532002,94.5910009 C16.3379106,83.4888334 -2.47438373,100.376868 0.266987327,119.07219 C2.69485052,135.64172 12.9403603,152.507915 25.9600501,159.283877 C45.4212328,169.41597 60.1561022,163.777525 71.5572165,151.417718 C79.0267235,143.322236 86.838902,129.033201 87.4422223,115.452156 C87.7283894,109.052939 95.1632647,109.393284 96.9531759,114.367419 C99.5906519,121.70941 101.267554,133.950915 94.7294573,145.706472 C83.6108646,165.686734 100.522062,184.471237 119.245043,181.733916 C135.839087,179.309639 152.730234,169.086545 159.516221,156.086089 C169.666949,136.650015 164.01834,121.942374 151.640248,110.550822 C143.532788,103.097809 129.218967,95.2935315 115.621475,94.6929224 C109.214614,94.4071781 109.55364,86.9832861 114.542425,85.1941991 Z M91.136876,100.236726 C86.031437,100.236726 81.8920396,96.1034437 81.8920396,91.0055468 C81.8920396,85.9076499 86.031437,81.7743675 91.136876,81.7743675 C96.2441378,81.7743675 100.381712,85.9076499 100.381712,91.0055468 C100.381712,96.1034437 96.2441378,100.236726 91.136876,100.236726 Z" id="Shape"></path>
                    </g>
                </g>
            </g>
        </g>
    </g>
</svg>