<?xml version="1.0" encoding="UTF-8"?>
<svg width="132px" height="229px" viewBox="0 0 132 229" version="1.1" xmlns="http://www.w3.org/2000/svg" xmlns:xlink="http://www.w3.org/1999/xlink">
    <!-- Generator: Sketch 42 (36781) - http://www.bohemiancoding.com/sketch -->
    <title>noun_772349</title>
    <desc>Created with Sketch.</desc>
    <defs></defs>
    <g id="Welcome" stroke="none" stroke-width="1" fill="none" fill-rule="evenodd">
        <g id="LED" transform="translate(-404.000000, -263.000000)" fill-rule="nonzero" fill="#FFFFFF">
            <g id="Left-Side" transform="translate(20.000000, 232.000000)">
                <g id="Fan-Output">
                    <g id="noun_772349" transform="translate(384.000000, 31.000000)">
                        <g id="Group">
                            <path d="M66,14.4041 C94.446,14.4041 117.586615,37.6018 117.586615,66.1123 C117.586615,76.6564778 114.438923,86.7935444 108.483692,95.4319333 C96.4183846,112.932622 89.9427692,132.9345 89.7219231,153.346033 L42.8162308,153.346033 C42.3542308,132.395078 35.904,112.701078 24.0925385,96.2588778 C17.7438462,87.4194778 14.3956154,76.9669 14.4133846,66.0308778 C14.4336923,52.8353889 19.4903077,40.2378444 28.6490769,30.5562333 C37.8078462,20.8771667 50.0787692,15.1674333 63.2000769,14.4778889 C64.1316923,14.4295444 65.0734615,14.4041 66,14.4041 L66,14.4041 Z M66,0.0305333333 C64.8221538,0.0305333333 63.6392308,0.0610666667 62.4486923,0.124677778 C27.6819231,1.94904444 0.124384615,31.1134667 0.0710769231,66.0105222 C0.0482307692,80.4400667 4.64284615,93.7856778 12.4536923,104.660633 C23.1126923,119.499833 28.5018462,137.494144 28.5018462,155.778522 L28.5018462,156.595289 C28.5018462,162.740122 33.4721538,167.722144 39.6025385,167.722144 L92.9584615,167.722144 C99.0888462,167.722144 104.059154,162.740122 104.059154,156.595289 L104.059154,154.4376 C104.059154,136.214289 109.948385,118.596556 120.285,103.604689 C127.626231,92.9536444 131.928923,80.0405889 131.928923,66.1148444 C131.928923,29.6173333 102.411692,0.0305333333 66,0.0305333333 L66,0.0305333333 Z" id="Shape"></path>
                            <path d="M93.1031538,210.580767 L38.8968462,210.580767 C35.0866154,210.580767 31.9973077,207.484178 31.9973077,203.664967 L31.9973077,203.359633 C31.9973077,199.540422 35.0866154,196.443833 38.8968462,196.443833 L93.1031538,196.443833 C96.9133846,196.443833 100.002692,199.540422 100.002692,203.359633 L100.002692,203.664967 C100.002692,207.484178 96.9133846,210.580767 93.1031538,210.580767 Z" id="Shape"></path>
                            <path d="M93.1031538,189.151456 L38.8968462,189.151456 C35.0866154,189.151456 31.9973077,186.054867 31.9973077,182.235656 L31.9973077,181.927778 C31.9973077,178.108567 35.0866154,175.011978 38.8968462,175.011978 L93.1031538,175.011978 C96.9133846,175.011978 100.002692,178.108567 100.002692,181.927778 L100.002692,182.233111 C100.002692,186.054867 96.9133846,189.151456 93.1031538,189.151456 Z" id="Shape"></path>
                            <path d="M45.0323077,217.873144 C49.6066154,224.572667 57.288,228.972011 66,228.972011 C74.712,228.972011 82.3908462,224.572667 86.9676923,217.873144 L45.0323077,217.873144 Z" id="Shape"></path>
                        </g>
                    </g>
                </g>
            </g>
        </g>
    </g>
</svg>