<?xml version="1.0" encoding="UTF-8" standalone="no"?>
<svg width="107px" height="92px" viewBox="0 0 107 92" version="1.1" xmlns="http://www.w3.org/2000/svg" xmlns:xlink="http://www.w3.org/1999/xlink">
    <!-- Generator: Sketch 47.1 (45422) - http://www.bohemiancoding.com/sketch -->
    <title>noun_654148</title>
    <desc>Created with Sketch.</desc>
    <defs></defs>
    <g id="designs" stroke="none" stroke-width="1" fill="none" fill-rule="evenodd">
        <g id="Birthday" transform="translate(-1176.000000, -447.000000)" stroke="#43B0D8" stroke-width="2">
            <g id="noun_654148" transform="translate(1177.000000, 448.000000)">
                <path d="M68.5302412,0 L65.7430663,0 C64.7634511,0 63.8106013,0.311727414 63.0201286,0.888602285 L46.5629496,12.9062316 C45.2924832,13.8324561 43.7632842,14.3322949 42.1930449,14.3322949 L23.1967176,14.3322949 L7.13031411,14.3322949 C3.19222521,14.3322949 0,17.5373544 0,21.4912762 L0,43.0040509 C0,46.9579727 3.19222521,50.1630322 7.13031411,50.1630322 L23.1967176,50.1630322 L41.8218974,50.1630322 C43.3671557,50.1630322 44.873158,50.6467471 46.1329182,51.5478902 L63.027266,63.6335979 C63.8123857,64.1943489 64.7509606,64.4953271 65.7145165,64.4953271 L68.5302412,64.4953271 C71.0872332,64.4953271 73.1588785,62.4153528 73.1588785,59.8480805 L73.1588785,4.64724663 C73.1588785,2.0799743 71.0872332,0 68.5302412,0 L68.5302412,0 Z" id="Shape"></path>
                <path d="M43.317757,22.1401869 C46.5258627,22.1401869 48.9435119,21.1399611 51.5444285,19.2471405 L67.3831776,7.70093458" id="Shape"></path>
                <path d="M76.44745,24.0654206 L73.1588785,24.0654206 L73.1588785,40.8877286 L76.44745,40.8877286 C80.9873229,40.8877286 84.6688787,37.1212138 84.6688787,32.4765746 C84.6688787,27.8319353 80.9873229,24.0654206 76.44745,24.0654206 L76.44745,24.0654206 Z" id="Shape" fill="#43B0D8"></path>
                <path d="M22.5039518,89.5233645 L19.7015576,89.5233645 L19.7015576,89.5233645 C16.8003691,89.5233645 14.4484911,87.1714865 14.4484911,84.270298 C14.4484911,83.7289944 14.5321563,83.1909428 14.6965239,82.6751978 L25.0922118,50.0560748 L39.4672897,50.0560748 L28.2206513,85.345272 L28.2206513,85.345272 C27.4275667,87.8337769 25.1157787,89.5233645 22.5039518,89.5233645 Z" id="Shape"></path>
                <path d="M35.4725633,62.5700935 L30.8037383,77.0093458 L36.3925234,77.0093458 L36.3925234,77.0093458 C39.1539471,77.0093458 41.3925234,74.7707695 41.3925234,72.0093458 L41.3925234,67.5700935 L41.3925234,67.5700935 C41.3925234,64.8086697 39.1539471,62.5700935 36.3925234,62.5700935 L35.4725633,62.5700935 Z" id="Shape"></path>
                <path d="M88.635514,7.70093458 C98.2593297,11.9226409 105,21.5511898 105,32.728972 C105,43.9067542 98.2611476,53.535303 88.6391498,57.7570093" id="Shape"></path>
                <path d="M87.635514,18.2897196 C92.307171,21.586097 95.3364486,26.8339443 95.3364486,32.7352903 C95.3364486,38.6276101 92.3148547,43.8700416 87.6528022,47.1682243" id="Shape"></path>
            </g>
        </g>
    </g>
</svg>