<?xml version="1.0" encoding="UTF-8" standalone="no"?>
<svg width="104px" height="102px" viewBox="0 0 104 102" version="1.1" xmlns="http://www.w3.org/2000/svg" xmlns:xlink="http://www.w3.org/1999/xlink">
    <!-- Generator: Sketch 47.1 (45422) - http://www.bohemiancoding.com/sketch -->
    <title>Page 1</title>
    <desc>Created with Sketch.</desc>
    <defs></defs>
    <g id="designs" stroke="none" stroke-width="1" fill="none" fill-rule="evenodd">
        <g id="Birthday" transform="translate(-331.000000, -448.000000)">
            <g id="Page-1" transform="translate(332.000000, 449.000000)">
                <path d="M60.8547,9.5401 L49.4447,0.0001" id="Stroke-1" stroke="#43B0D8" stroke-width="2" stroke-linecap="round" stroke-linejoin="round"></path>
                <polyline id="Stroke-3" stroke="#43B0D8" stroke-width="2" stroke-linecap="round" stroke-linejoin="round" points="16.3591 29.1534 1.4381 42.2994 50.3551 74.0644 100.0221 42.2904 86.6121 31.0784"></polyline>
                <path d="M49.445,0.0001 L38.903,9.2881" id="Stroke-5" stroke="#43B0D8" stroke-width="2" stroke-linecap="round" stroke-linejoin="round"></path>
                <path d="M100.0217,42.2911 L50.3547,74.0641 L1.4377,42.3001 C0.5677,43.0271 0.0007,44.1061 0.0007,45.3231 L0.0007,83.5201 L0.0007,88.2321 L0.0007,93.9461 C0.0007,97.0661 2.5527,99.6191 5.6727,99.6191 L95.6297,99.6191 C98.7497,99.6191 101.3027,97.0661 101.3027,93.9461 L101.3027,86.9151 L101.3027,83.5201 L101.3027,45.3231 C101.3027,44.1361 100.8567,43.0181 100.0217,42.2911 Z" id="Stroke-7" stroke="#43B0D8" stroke-width="2" stroke-linecap="round" stroke-linejoin="round"></path>
                <path d="M35.5812,65.7549 L1.4382,97.7019" id="Stroke-9" stroke="#43B0D8" stroke-width="2" stroke-linecap="round" stroke-linejoin="round"></path>
                <path d="M64.9035,65.7549 L99.0465,97.7019" id="Stroke-11" stroke="#43B0D8" stroke-width="2" stroke-linecap="round" stroke-linejoin="round"></path>
                <path d="M51.4855,57.5694 C51.4855,57.5694 49.5325,60.9064 49.1945,64.5054 C48.7585,69.1694 52.4445,67.8794 50.3555,74.0644" id="Stroke-21" stroke="#43B0D8" stroke-width="2" stroke-linecap="round" stroke-linejoin="round"></path>
                <path d="M50.0319,74.0645 L86.6119,50.6625 L86.6119,13.2025 C86.6119,11.1885 84.9639,9.5405 82.9509,9.5405 L20.0199,9.5405 C18.0069,9.5405 16.3589,11.1885 16.3589,13.2025 L16.3589,52.1985 L50.0319,74.0645 Z" id="Stroke-13" stroke="#43B0D8" stroke-width="2" stroke-linecap="round" stroke-linejoin="round"></path>
                <path d="M64.925,41.8126 L60.904,47.1966 C58.723,50.1956 55.315,51.8996 51.567,51.8996 C47.818,51.8996 44.41,50.2636 42.229,47.3336 L38.208,42.0846 C33.028,35.2696 33.71,25.7276 39.912,19.7976 C46.455,13.4586 56.951,13.5956 63.357,20.0016 C69.151,25.7956 69.9,35.2016 64.925,41.8126 Z" id="Stroke-15" fill="#43B0D8"></path>
                <path d="M38.9035,29.5372 C39.4265,27.1082 40.6605,24.8112 42.5885,22.9692" id="Stroke-17" stroke="#FFFFFF" stroke-width="2" stroke-linecap="round" stroke-linejoin="round"></path>
                <path d="M56.9811,56.5694 L45.9891,56.5694 L47.4801,52.3784 C48.7841,52.6574 50.1811,52.8434 51.5781,52.8434 L51.7651,52.8434 C53.0691,52.8434 54.2801,52.6574 55.5841,52.4704 L56.9811,56.5694 Z" id="Stroke-19" stroke="#43B0D8" stroke-width="2" stroke-linecap="round" stroke-linejoin="round"></path>
            </g>
        </g>
    </g>
</svg>