<?xml version="1.0" encoding="UTF-8" standalone="no"?>
<svg width="102px" height="111px" viewBox="0 0 102 111" version="1.1" xmlns="http://www.w3.org/2000/svg" xmlns:xlink="http://www.w3.org/1999/xlink">
    <!-- Generator: Sketch 47.1 (45422) - http://www.bohemiancoding.com/sketch -->
    <title>Page 1</title>
    <desc>Created with Sketch.</desc>
    <defs></defs>
    <g id="designs" stroke="none" stroke-width="1" fill="none" fill-rule="evenodd" stroke-linecap="round" stroke-linejoin="round">
        <g id="Birthday" transform="translate(-758.000000, -443.000000)" stroke-width="2">
            <g id="Page-1" transform="translate(759.000000, 444.000000)">
                <path d="M30.6506,21.4111 C30.6506,25.1751 27.5996,28.2251 23.8366,28.2251 C20.0716,28.2251 17.0216,25.1751 17.0216,21.4111 C17.0216,17.6471 20.0716,14.5971 23.8366,14.5971 C27.5996,14.5971 30.6506,17.6471 30.6506,21.4111 Z" id="Stroke-1" stroke="#43B0D8"></path>
                <path d="M24.2648,0.0009 L24.2648,14.5969" id="Stroke-3" stroke="#43B0D8"></path>
                <path d="M72.4094,21.4111 C72.4094,25.1751 69.3584,28.2251 65.5954,28.2251 C61.8314,28.2251 58.7804,25.1751 58.7804,21.4111 C58.7804,17.6471 61.8314,14.5971 65.5954,14.5971 C69.3584,14.5971 72.4094,17.6471 72.4094,21.4111 Z" id="Stroke-5" stroke="#43B0D8"></path>
                <path d="M66.0236,0.0009 L66.0236,14.5969" id="Stroke-7" stroke="#43B0D8"></path>
                <path d="M54.7267,92.6464 L9.9077,92.6464 C4.4357,92.6464 -0.0003,88.2104 -0.0003,82.7384 L-0.0003,17.2064 C-0.0003,11.7344 4.4357,7.2984 9.9077,7.2984 L79.4617,7.2984 C84.9337,7.2984 89.3697,11.7344 89.3697,17.2064 L89.3697,59.2994" id="Stroke-9" stroke="#43B0D8"></path>
                <path d="M0.0002,35.8417 L89.3692,35.8417" id="Stroke-11" stroke="#43B0D8"></path>
                <path d="M75.4562,101.623 C75.3472,102.06 75.2882,102.518 75.2882,102.988 C75.2882,106.094 77.8062,108.611 80.9112,108.611 C84.0172,108.611 86.5342,106.094 86.5342,102.988 C86.5342,102.518 86.4752,102.06 86.3662,101.623 L75.4562,101.623 Z" id="Stroke-13" stroke="#FFFFFF" fill="#43B0D8"></path>
                <path d="M66.0627,94.3085 L95.7597,94.3085 C95.7847,94.3085 95.8097,94.3095 95.8347,94.3105 L95.8347,83.9015 C95.8347,75.6605 89.1527,68.9785 80.9117,68.9785 C72.6687,68.9785 65.9877,75.6605 65.9877,83.9015 L65.9877,94.3105 C66.0127,94.3095 66.0377,94.3085 66.0627,94.3085 Z" id="Stroke-15" stroke="#FFFFFF" fill="#43B0D8"></path>
                <path d="M80.9113,70.9785 C82.4043,70.9785 83.8453,71.1985 85.2043,71.6065 C85.4183,71.0745 85.5363,70.4945 85.5363,69.8865 C85.5363,67.3325 83.4663,65.2605 80.9113,65.2605 C78.3563,65.2605 76.2863,67.3325 76.2863,69.8865 C76.2863,70.4945 76.4043,71.0745 76.6173,71.6065 C77.9773,71.1985 79.4183,70.9785 80.9113,70.9785 Z" id="Stroke-17" stroke="#43B0D8"></path>
                <path d="M96.9108,101.623 L64.9118,101.623 C63.5328,101.623 62.4048,100.495 62.4048,99.117 L62.4048,96.815 C62.4048,95.436 63.5328,94.309 64.9118,94.309 L96.9108,94.309 C98.2888,94.309 99.4168,95.436 99.4168,96.815 L99.4168,99.117 C99.4168,100.495 98.2888,101.623 96.9108,101.623 Z" id="Stroke-19" stroke="#FFFFFF" fill="#43B0D8"></path>
            </g>
        </g>
    </g>
</svg>