<svg xmlns="http://www.w3.org/2000/svg" xmlns:xlink="http://www.w3.org/1999/xlink" version="1.1" x="0px" y="0px" viewBox="0 0 100 100" enable-background="new 0 0 100 100" xml:space="preserve" fill="#3cafda"><g><path d="M76.564,34.504c0-7.857-6.393-14.25-14.25-14.25c-6.461,0-11.904,4.331-13.641,10.237   c-2.324-1.023-4.887-1.603-7.586-1.603c-9.031,0-16.596,6.368-18.465,14.847c-6.605,0.141-11.939,5.547-11.939,12.184   c0,6.727,5.473,12.199,12.199,12.199h36.41c6.727,0,12.199-5.473,12.199-12.199c0-3.264-1.295-6.227-3.393-8.417   C73.078,45.282,76.564,40.3,76.564,34.504z M59.293,64.119h-36.41c-4.521,0-8.199-3.678-8.199-8.199   c0-4.279,3.301-7.799,7.49-8.161c0,0.016-0.002,0.031-0.002,0.047v0.916v1.58v0.42c0,1.104,0.895,2,2,2c1.104,0,2-0.896,2-2v-0.352   v-1.648v-0.916c0-8.226,6.691-14.917,14.916-14.917s14.916,6.691,14.916,14.917v0.842c0.002,0,0.006,0,0.008,0   c0,0.025-0.008,0.049-0.008,0.074v2c0,1.104,0.896,2,2,2c1.105,0,2-0.896,2-2v-1.371v-0.629v-0.916   c0-0.016-0.002-0.031-0.002-0.047c4.189,0.361,7.49,3.881,7.49,8.161C67.492,60.441,63.814,64.119,59.293,64.119z M63.846,44.627   c-1.332-0.539-2.777-0.859-4.293-0.892c-1.004-4.556-3.662-8.489-7.299-11.166c0.908-4.729,5.07-8.315,10.061-8.315   c5.652,0,10.25,4.599,10.25,10.25C72.564,39.635,68.773,43.884,63.846,44.627z"></path><path d="M62.314,17.337c1.104,0,2-0.896,2-2V9.504c0-1.104-0.896-2-2-2c-1.105,0-2,0.896-2,2v5.833   C60.314,16.442,61.209,17.337,62.314,17.337z"></path><path d="M87.316,32.504h-5.834c-1.104,0-2,0.895-2,2c0,1.104,0.896,2,2,2h5.834c1.104,0,2-0.896,2-2   C89.316,33.399,88.42,32.504,87.316,32.504z"></path><path d="M77.281,22.366l4.125-4.125c0.781-0.781,0.779-2.048,0-2.828c-0.781-0.782-2.047-0.781-2.828,0l-4.125,4.124   c-0.781,0.781-0.781,2.047,0,2.829C75.234,23.146,76.5,23.146,77.281,22.366z"></path><path d="M77.283,46.644c-0.781-0.781-2.047-0.781-2.83,0c-0.779,0.78-0.779,2.048,0,2.828l4.125,4.124   c0.781,0.781,2.049,0.781,2.828,0c0.783-0.781,0.781-2.047,0-2.828L77.283,46.644z"></path><path d="M47.348,22.366c0.781,0.781,2.047,0.78,2.828,0c0.781-0.782,0.781-2.047,0-2.829l-4.125-4.125   c-0.781-0.78-2.047-0.781-2.828,0c-0.781,0.78-0.781,2.048,0,2.828L47.348,22.366z"></path><circle cx="32.721" cy="71.721" r="1.764"></circle><circle cx="50.221" cy="71.721" r="1.764"></circle><circle cx="41.471" cy="78.323" r="1.765"></circle><circle cx="32.721" cy="84.129" r="1.764"></circle><circle cx="50.221" cy="84.129" r="1.764"></circle><circle cx="41.471" cy="90.731" r="1.765"></circle></g></svg>
